<?xml version="1.0" standalone="no"?><!-- Generator: Gravit.io --><svg xmlns="http://www.w3.org/2000/svg" xmlns:xlink="http://www.w3.org/1999/xlink" style="isolation:isolate" viewBox="0 0 40 40.41" width="40" height="40.41"><defs><clipPath id="_clipPath_frLpJea5gCwVMwLtuqM8hUlSsWKNOygG"><rect width="40" height="40.41"/></clipPath></defs><g clip-path="url(#_clipPath_frLpJea5gCwVMwLtuqM8hUlSsWKNOygG)"><path d=" M 0 17.321 L 0 28.868 L 20 40.415 L 20 28.868 L 10 11.547 L 0 17.321 Z " fill="rgb(204,204,204)"/><path d=" M 20 40.415 L 40 28.868 L 40 17.321 L 20 28.868 L 20 40.415 Z " fill="rgb(236,236,236)"/><path d=" M 30 0 L 10 11.547 L 20 28.868 L 40 17.321 L 30 0 L 40 17.321" fill="rgb(195,0,0)"/><path d=" M 0 17.321 L 10 11.547 L 20 28.868" fill="none" vector-effect="non-scaling-stroke" stroke-width="1" stroke="rgb(136,0,0)" stroke-linejoin="miter" stroke-linecap="square" stroke-miterlimit="3"/><path d=" M 10 11.547 L 30 0 L 40 17.321" fill="none" vector-effect="non-scaling-stroke" stroke-width="1" stroke="rgb(136,0,0)" stroke-linejoin="miter" stroke-linecap="square" stroke-miterlimit="3"/><path d=" M 7.5 33.198 L 12.5 36.084 L 12.5 27.424 L 7.5 24.537 L 7.5 33.198 Z " fill="rgb(136,106,79)"/><path d=" M 25 28.868 L 25 34.641 L 30 31.754 L 30 25.981 L 25 28.868 Z " fill="rgb(138,199,242)"/><path d=" M 32.5 24.537 L 32.5 30.311 L 37.5 27.424 L 37.5 21.651 L 32.5 24.537 Z " fill="rgb(138,199,242)"/></g></svg>