<?xml version="1.0" standalone="no"?><!-- Generator: Gravit.io --><svg xmlns="http://www.w3.org/2000/svg" xmlns:xlink="http://www.w3.org/1999/xlink" style="isolation:isolate" viewBox="0 0 80 57.74" width="80" height="57.74"><defs><clipPath id="_clipPath_Sj5k1JkrC3pX4qoCByzE4JPYJ3qifhUC"><rect width="80" height="57.74"/></clipPath></defs><g clip-path="url(#_clipPath_Sj5k1JkrC3pX4qoCByzE4JPYJ3qifhUC)"><path d=" M 55 31.754 L 45 25.981 L 40 28.868 L 35 25.981 L 20 34.641 L 25 37.528 L 20 40.415 L 40 51.962 L 50 46.188 L 45 43.301 L 55 37.528 L 50 34.641 L 55 31.754 Z " fill="rgb(37,57,54)"/><path d=" M 20 34.641 L 20 28.868 L 24.85 26.067 L 25 20.207 L 35 14.434 L 35 25.981 L 20 34.641 Z " fill="rgb(225,220,220)"/><path d=" M 40 28.868 L 40 23.094 L 45 20.207 L 45 25.981 L 40 28.868 Z " fill="rgb(225,220,220)"/><path d=" M 55 31.754 L 55 25.981 L 60 23.094 L 60 28.868 L 55 31.754 Z " fill="rgb(225,220,220)"/><path d=" M 50 23.094 L 50 17.321 L 55 14.434 L 55 20.207 L 50 23.094 Z " fill="rgb(225,220,220)"/><path d=" M 15 31.754 L 15 25.981 L 20 28.868 L 20 34.641 L 15 31.754 Z " fill="rgb(206,198,198)"/><path d=" M 20 23.094 L 20 17.321 L 25 20.207 L 25 25.981 L 20 23.094 Z " fill="rgb(206,198,198)"/><path d=" M 35 20.207 L 35 25.981 L 40 28.868 L 40 23.094 L 35 20.207 Z " fill="rgb(206,198,198)"/><path d=" M 50 23.094 L 50 17.321 L 45 14.434 L 45 25.981 L 55 31.754 L 55 25.981 L 50 23.094 Z " fill="rgb(206,198,198)"/><path d=" M 15 25.981 L 20 23.094 L 25 25.981 L 20 28.868 L 15 25.981 Z " fill="rgb(238,234,234)"/><path d=" M 20 17.321 L 30 11.547 L 35 14.434 L 25 20.207 L 20 17.321 Z " fill="rgb(238,234,234)"/><path d=" M 50 23.094 L 55 20.207 L 60 23.094 L 55 25.981 L 50 23.094 Z " fill="rgb(238,234,234)"/><path d=" M 35 14.434 L 35 20.207 L 40 23.094 L 45 20.207 L 45 14.434 L 40 11.547 L 35 14.434 Z " fill="rgb(238,234,234)"/><path d=" M 30 23.094 L 30 28.868 L 35 25.981 L 35 20.207 L 30 23.094 Z " fill="rgb(40,74,123)" fill-opacity="0.11"/><path d=" M 25 20.207 L 25 25.981 L 30 23.094 L 30 17.321 L 25 20.207 Z " fill="rgb(144,164,193)" fill-opacity="0.11"/><path d=" M 20 28.868 L 20 34.641 L 25 31.754 L 25 25.981 L 20 28.868 Z " fill="rgb(65,93,134)" fill-opacity="0.11"/><path d=" M 45 20.207 L 45 25.981 L 50 28.868 L 50 23.094 L 45 20.207 Z " fill="rgb(65,93,134)" fill-opacity="0.11"/><path d=" M 25 14.434 L 30 17.321 L 35 14.434 L 30 11.547 L 25 14.434 Z " fill="rgb(40,74,123)" fill-opacity="0.11"/><path d=" M 25 8.66 L 30 11.547 L 35 8.66 L 40 11.547 L 45 8.66 L 50 11.547 L 55 8.66 L 45 2.887 L 40 5.774 L 35 2.887 L 25 8.66 Z " fill="rgb(238,234,234)"/><path d=" M 45 14.434 L 50 17.321 L 55 14.434 L 50 11.547 L 45 14.434 Z " fill="rgb(238,234,234)"/><path d=" M 55 8.66 L 55 14.434 L 50 11.547 L 55 8.66 Z " fill="rgb(225,220,220)"/><path d=" M 45 8.66 L 45 14.434 L 40 17.321 L 40 11.547 L 45 8.66 Z " fill="rgb(225,220,220)"/><path d=" M 35 8.66 L 35 14.434 L 30 11.547 L 35 8.66 Z " fill="rgb(225,220,220)"/><path d=" M 25 8.66 L 25 14.434 L 30 11.547 L 25 8.66 Z " fill="rgb(206,198,198)"/><path d=" M 35 8.66 L 35 14.434 L 40 17.321 L 40 11.547 L 35 8.66 Z " fill="rgb(206,198,198)"/><path d=" M 45 8.66 L 45 14.434 L 50 11.547 L 45 8.66 Z " fill="rgb(206,198,198)"/><path d=" M 40 5.774 L 35 8.66 L 40 11.547 L 45 8.66 L 40 5.774 Z " fill="rgb(40,74,123)" fill-opacity="0.11"/><path d=" M 35 2.887 L 30 5.774 L 40 11.547 L 45 8.66 L 35 2.887 Z " fill="rgb(40,74,123)" fill-opacity="0.11"/><path d=" M 40 11.547 L 40 17.321 L 35 14.434 L 35 8.66 L 40 11.547 Z " fill="rgb(59,62,68)" fill-opacity="0.11"/><path d=" M 45 8.66 L 50 5.774 L 55 8.66 L 50 11.547 L 45 8.66 Z " fill="rgb(59,62,68)" fill-opacity="0.11"/><path d=" M 50 17.321 L 50 23.094 L 55 20.207 L 55 14.434 L 50 17.321 Z " fill="rgb(90,125,179)" fill-opacity="0.11"/><path d=" M 20 31.754 L 17.5 33.198 L 22.5 36.084 L 25 34.641 L 20 31.754 Z " fill="rgb(238,234,234)"/><path d=" M 15 37.528 L 20 34.641 L 22.5 36.084 L 20 37.528 L 40 49.075 L 37.5 50.518 L 15 37.528 Z " fill="rgb(238,234,234)"/><path d=" M 55 28.868 L 50 31.754 L 55 34.641 L 45 40.415 L 50 43.301 L 37.5 50.518 L 40 51.962 L 55 43.301 L 50 40.415 L 60 34.641 L 55 31.754 L 57.5 30.311 L 55 28.868 Z " fill="rgb(238,234,234)"/><path d=" M 40 54.848 L 55 46.188 L 55 43.301 L 40 51.962 L 40 54.848 Z " fill="rgb(225,220,220)"/><path d=" M 50 40.415 L 52.5 41.858 L 60 37.528 L 60 34.641 L 50 40.415 Z " fill="rgb(225,220,220)"/><path d=" M 55 31.754 L 57.5 33.198 L 57.5 30.311 L 55 31.754 Z " fill="rgb(225,220,220)"/><path d=" M 20 37.528 L 22.5 38.971 L 25 37.528 L 25 34.641 L 20 37.528 Z " fill="rgb(225,220,220)"/><path d=" M 17.5 33.198 L 17.5 36.084 L 20 34.641 L 17.5 33.198 Z " fill="rgb(206,198,198)"/><path d=" M 15 37.528 L 15 40.415 L 40 54.848 L 40 51.962 L 15 37.528 Z " fill="rgb(206,198,198)"/><path d=" M 50 31.754 L 50 34.641 L 52.5 36.084 L 55 34.641 L 50 31.754 Z " fill="rgb(206,198,198)"/><path d=" M 45 40.415 L 45 43.301 L 47.5 44.745 L 50 43.301 L 45 40.415 Z " fill="rgb(206,198,198)"/><path d=" M 17.5 38.971 L 17.5 41.858 L 25 46.188 L 25 43.301 L 17.5 38.971 Z " fill="rgb(144,164,193)" fill-opacity="0.11"/><path d=" M 42.5 50.518 L 42.5 53.405 L 50 49.075 L 50 46.188 L 47.5 44.745 L 42.5 47.631 L 45 49.075 L 42.5 50.518 Z " fill="rgb(144,164,193)" fill-opacity="0.11"/><path d=" M 57.5 33.198 L 52.5 36.084 L 55 37.528 L 55 40.415 L 57.5 38.971 L 57.5 36.084 L 60 34.641 L 57.5 33.198 Z " fill="rgb(144,164,193)" fill-opacity="0.11"/><path d=" M 22.5 33.198 L 20 34.641 L 22.5 36.084 L 22.5 38.971 L 25 37.528 L 25 34.641 L 22.5 33.198 Z " fill="rgb(144,164,193)" fill-opacity="0.11"/><path d=" M 50 31.754 L 50 34.641 L 52.5 36.084 L 52.5 33.198 L 55 31.754 L 52.5 30.311 L 50 31.754 Z " fill="rgb(144,164,193)" fill-opacity="0.11"/><path d=" M 25 40.415 L 22.5 41.858 L 22.5 44.745 L 27.5 47.631 L 27.5 44.745 L 25 43.301 L 27.5 41.858 L 25 40.415 Z " fill="rgb(144,164,193)" fill-opacity="0.11"/><path d=" M 35 46.188 L 32.5 47.631 L 37.5 50.518 L 40 49.075 L 35 46.188 Z " fill="rgb(144,164,193)" fill-opacity="0.11"/><path d=" M 25 43.301 L 25 46.188 L 35 51.962 L 35 49.075 L 30 46.188 L 32.5 44.745 L 30 43.301 L 27.5 44.745 L 25 43.301 Z " fill="rgb(90,125,179)" fill-opacity="0.11"/><path d=" M 20 31.754 L 17.5 33.198 L 17.5 36.084 L 22.5 38.971 L 22.5 36.084 L 25 34.641 L 20 31.754 Z " fill="rgb(90,125,179)" fill-opacity="0.11"/><path d=" M 15 37.528 L 15 40.415 L 20 43.301 L 20 40.415 L 15 37.528 Z " fill="rgb(90,125,179)" fill-opacity="0.11"/><path d=" M 52.5 41.858 L 47.5 44.745 L 50 46.188 L 55 43.301 L 52.5 41.858 Z " fill="rgb(90,125,179)" fill-opacity="0.11"/><path d=" M 52.5 36.084 L 50 37.528 L 52.5 38.971 L 52.5 41.858 L 57.5 38.971 L 57.5 36.084 L 55 37.528 L 52.5 36.084 Z " fill="rgb(90,125,179)" fill-opacity="0.11"/><path d=" M 47.5 38.971 L 45 40.415 L 45 43.301 L 47.5 44.745 L 47.5 41.858 L 50 40.415 L 47.5 38.971 Z " fill="rgb(144,164,193)" fill-opacity="0.11"/><path d=" M 57.5 30.311 L 57.5 33.198 L 52.5 30.311 L 55 28.868 L 57.5 30.311 Z " fill="rgb(144,164,193)" fill-opacity="0.11"/><path d=" M 40 17.321 L 35 20.207 L 40 23.094 L 45 20.207 L 40 17.321 Z " fill="rgb(111,142,187)" fill-opacity="0.11"/><g opacity="0.63"><linearGradient id="_lgradient_0" x1="45.589285714285715%" y1="19.873857071400632%" x2="92.82142857142861%" y2="102.32903553237031%"><stop offset="0.8695652173913043%" stop-opacity="0.28" style="stop-color:rgb(225,220,220)"/><stop offset="98.26086956521739%" stop-opacity="0" style="stop-color:rgb(0,0,0)"/></linearGradient><path d=" M 35 37.528 L 35 25.981 L 22.5 33.198 L 25 34.641 L 25 37.528 L 22.5 38.971 L 27.5 41.858 L 35 37.528 Z " fill="url(#_lgradient_0)"/></g><g opacity="0.63"><linearGradient id="_lgradient_1" x1="47.076406653669224%" y1="7.711696251194214%" x2="58.884615482127565%" y2="105.88330091010572%"><stop offset="0.8695652173913043%" stop-opacity="0.28" style="stop-color:rgb(225,220,220)"/><stop offset="98.26086956521739%" stop-opacity="0" style="stop-color:rgb(0,0,0)"/></linearGradient><path d=" M 40 28.868 L 40 40.415 L 45 37.528 L 45 25.981 L 40 28.868 Z " fill="url(#_lgradient_1)"/></g><g opacity="0.63"><linearGradient id="_lgradient_2" x1="51.34434841251547%" y1="8.56536237866301%" x2="39.7433011424512%" y2="90.27934910255236%"><stop offset="0%" stop-opacity="0.31" style="stop-color:rgb(206,198,198)"/><stop offset="99.1304347826087%" stop-opacity="0" style="stop-color:rgb(0,0,0)"/></linearGradient><path d=" M 35 25.981 L 35 37.528 L 40 40.415 L 40 28.868 L 35 25.981 Z " fill="url(#_lgradient_2)"/></g><g opacity="0.63"><linearGradient id="_lgradient_3" x1="51.34434841251547%" y1="8.56536237866301%" x2="31.055047685410553%" y2="98.83032113941388%"><stop offset="0%" stop-opacity="0.31" style="stop-color:rgb(206,198,198)"/><stop offset="99.1304347826087%" stop-opacity="0" style="stop-color:rgb(0,0,0)"/></linearGradient><path d=" M 45 25.981 L 52.5 30.311 L 50 31.754 L 50 34.641 L 52.5 36.084 L 47.5 38.971 L 45 37.528 L 45 25.981 Z " fill="url(#_lgradient_3)"/></g><path d=" M 35 11.547 L 32.5 12.99 L 35 14.434 L 35 17.321 L 37.5 15.877 L 40 17.321 L 42.5 18.764 L 45 17.321 L 45 14.434 L 42.5 12.99 L 40 14.434 L 35 11.547 Z " fill="rgb(116,168,93)"/><path d=" M 45 8.66 L 42.5 10.104 L 45 11.547 L 47.5 10.104 L 45 8.66 Z " fill="rgb(116,168,93)"/><path d=" M 42.5 10.104 L 42.5 12.99 L 45 14.434 L 45 11.547 L 42.5 10.104 Z " fill="rgb(93,138,74)"/><path d=" M 37.5 15.877 L 37.5 18.764 L 42.5 21.651 L 42.5 18.764 L 37.5 15.877 Z " fill="rgb(93,138,74)"/><path d=" M 45 11.547 L 45 14.434 L 47.5 12.99 L 47.5 10.104 L 45 11.547 Z " fill="rgb(106,151,87)"/><path d=" M 42.5 18.764 L 42.5 21.651 L 45 20.207 L 45 17.321 L 42.5 18.764 Z " fill="rgb(106,151,87)"/><path d=" M 37.5 15.877 L 35 17.321 L 35 20.207 L 37.5 18.764 L 37.5 15.877 Z " fill="rgb(106,151,87)"/><path d=" M 40 20.207 L 37.5 21.651 L 40 23.094 L 42.5 21.651 L 40 20.207 Z " fill="rgb(116,168,93)"/><path d=" M 37.5 21.651 L 37.5 24.537 L 40 25.981 L 40 23.094 L 37.5 21.651 Z " fill="rgb(93,138,74)"/><g opacity="0.15"><path d=" M 42.5 12.99 L 40 14.434 L 37.5 12.99 L 35 14.434 L 40 17.321 L 45 14.434 L 42.5 12.99 Z " fill="rgb(208,255,0)"/></g><g opacity="0.15"><path d=" M 37.5 21.651 L 37.5 24.537 L 40 25.981 L 40 23.094 L 37.5 21.651 Z " fill="rgb(208,255,0)"/></g><g opacity="0.15"><path d=" M 45 8.66 L 42.5 10.104 L 45 11.547 L 45 14.434 L 47.5 12.99 L 47.5 10.104 L 45 8.66 Z " fill="rgb(116,176,66)"/></g><g opacity="0.15"><path d=" M 40 14.434 L 37.5 15.877 L 37.5 18.764 L 40 20.207 L 40 17.321 L 42.5 18.764 L 45 17.321 L 40 14.434 Z " fill="rgb(100,210,10)"/></g><g opacity="0.15"><path d=" M 35 11.547 L 32.5 12.99 L 35 14.434 L 35 17.321 L 40 14.434 L 35 11.547 Z " fill="rgb(100,210,10)"/></g></g></svg>